<svg xmlns="http://www.w3.org/2000/svg" viewBox="0 0 100 100" role="img"><style>
.grid{stroke:#41566b;stroke-width:1.2;opacity:.82}.axis{stroke:#9aabbc;stroke-width:1.7;opacity:.94}
.o{fill:none;stroke:#ff6a00;stroke-width:4.2;stroke-linecap:round;stroke-linejoin:round}
.c{fill:none;stroke:#33d7ff;stroke-width:3.2;stroke-linecap:round;stroke-linejoin:round}
.g{fill:none;stroke:#72e38b;stroke-width:3.2;stroke-linecap:round;stroke-linejoin:round}
.w{fill:none;stroke:#f7f9fc;stroke-width:2.8;stroke-linecap:round;stroke-linejoin:round}
.fill-o{fill:#ff6a00}.fill-c{fill:#33d7ff}.fill-g{fill:#72e38b}.muted{fill:#91a1b3}
.label{fill:#d9e2eb;font:800 8px Arial,sans-serif;letter-spacing:.05em}
</style><defs><linearGradient id="frg" x1="0" y1="0" x2="1" y2="0"><stop offset="0" stop-color="#ff6a00"/><stop offset=".5" stop-color="#72e38b"/><stop offset="1" stop-color="#33d7ff"/></linearGradient></defs>
      <path class="grid" d="M10 25H91M10 47H91M10 69H91M29 17V80M54 17V80M79 17V80"/>
      <path d="M10 72L17 67 23 70 30 57 36 65 43 53 50 68 57 59 64 64 71 51 78 67 90 60" fill="none" stroke="#667789" stroke-width="2"/>
      <path class="o" d="M36 65C45 64 48 24 57 24S69 63 77 64"/>
      <path class="c" d="M57 14V80M48 24H66"/><circle cx="57" cy="24" r="7" fill="none" stroke="#2dd4ff" stroke-width="2"/>
      <text class="label" x="43" y="92">2.5 kHz</text>
    </svg>
